<svg width="12" height="12" xmlns="http://www.w3.org/2000/svg"><g fill="#C1C1C1"><path d="M3.758 8.258c.206.206.554.196.773-.023l3.705-3.704c.219-.219.229-.567.023-.773-.206-.206-.554-.196-.773.023l-3.704 3.704c-.219.219-.229.567-.023.773z"/><path d="M5.588 7.916c.053.106.082.225.082.348 0 .206-.079.399-.223.543l-1.915 1.915c-.144.144-.336.223-.543.223-.206 0-.399-.079-.543-.223l-1.165-1.165c-.144-.144-.223-.336-.223-.543 0-.206.079-.399.223-.543l1.915-1.915c.144-.144.336-.223.543-.223.123 0 .242.028.348.082l.766-.766c-.327-.251-.72-.377-1.114-.377-.469 0-.937.178-1.293.533l-1.915 1.915c-.711.711-.711 1.874 0 2.585l1.165 1.165c.355.355.824.533 1.293.533s.937-.178 1.293-.533l1.915-1.915c.654-.654.706-1.691.156-2.406l-.766.766z"/><path d="M11.471 1.698l-1.165-1.165c-.355-.355-.824-.533-1.293-.533s-.937.178-1.293.533l-1.915 1.915c-.654.654-.706 1.691-.156 2.406l.766-.766c-.053-.106-.082-.225-.082-.348 0-.206.079-.399.223-.543l1.915-1.915c.144-.144.336-.223.543-.223.206 0 .399.079.543.223l1.165 1.165c.144.144.223.336.223.543 0 .206-.079.399-.223.543l-1.915 1.915c-.144.144-.336.223-.543.223-.123 0-.242-.028-.348-.082l-.766.766c.327.251.72.377 1.114.377.469 0 .937-.178 1.293-.533l1.915-1.915c.711-.711.711-1.874 0-2.585z"/></g></svg>