<svg width="144" height="43" xmlns="http://www.w3.org/2000/svg"><path d="M31.407 41h7.453l-18.492-39.731h-1.569l-18.492 39.731h7.285l3.418-7.845h16.923l3.474 7.845zm2.242-2.578l-3.53-7.453h-21.182l-3.53 7.453h-1.233l15.018-31.493h.841l14.794 31.493h-1.177zm-14.234-29.644l-10.031 21.182h20.286l-9.919-21.182h-.336zm.056 5.268l5.996 13.561h-11.992l5.996-13.561zm26.562-12.44l14.234 20.566-14.29 18.829h8.238l10.255-13.953 10.311 13.953h8.406l-14.346-19.389 14.29-20.005h-8.069l-10.479 15.13-10.199-15.13h-8.35zm6.5 2.634l11.992 16.531 12.16-16.531h1.401l-12.721 17.316 12.328 16.867h-1.345l-11.88-16.027-11.992 16.027h-1.345l12.496-16.867-12.496-17.316h1.401zm42.645 36.761h6.949v-39.394h-6.949v39.394zm4.035-36.761v34.183h-1.121v-34.183h1.121zm43.373 26.113c0-5.155-2.522-8.63-11.32-12.048-5.548-2.017-7.677-3.586-7.677-6.108 0-2.746 1.905-5.043 6.052-5.043 3.026 0 6.5 1.345 8.798 2.634l2.242-6.164c-2.522-1.457-6.668-2.69-10.871-2.69-8.406 0-13.225 5.492-13.225 11.432 0 4.707 2.634 8.35 10.311 11.151 7.117 2.634 8.574 4.203 8.574 6.837 0 2.522-2.129 4.819-6.781 4.819-3.53 0-7.453-1.345-10.703-3.53l-2.41 6.276c3.586 2.185 8.238 3.755 12.889 3.755 8.798 0 14.121-4.315 14.121-11.32zm-5.716-24.208c-2.858-1.233-4.651-1.401-7.229-1.401-5.66 0-8.742 3.53-8.742 7.509 0 3.979 2.466 6.444 8.125 8.238 8.966 2.858 10.479 5.828 10.479 10.311 0 4.203-3.194 8.181-10.983 8.181-3.642 0-6.052-.785-9.582-2.41l.448-1.009c3.418 1.513 5.716 2.298 9.134 2.298 7.005 0 9.863-3.418 9.863-7.061 0-3.867-1.513-6.556-9.694-9.19-6.108-1.961-8.91-4.875-8.91-9.358 0-4.539 3.418-8.63 9.863-8.63 2.298 0 5.043.28 7.621 1.457l-.392 1.065z" fill="#FFF5F5"/></svg>